<svg width="24" height="25" viewBox="0 0 24 25" fill="none" xmlns="http://www.w3.org/2000/svg">
<g clip-path="url(#clip0_1_104)">
<path d="M23.848 12.033C23.633 11.74 18.524 4.852 12 4.852C5.476 4.852 0.365996 11.74 0.151996 12.032C0.0527765 12.1677 -0.000701904 12.3314 -0.000701904 12.4995C-0.000701904 12.6676 0.0527765 12.8313 0.151996 12.967C0.365996 13.26 5.475 20.148 12 20.148C18.524 20.148 23.633 13.26 23.848 12.968C23.9474 12.8324 24.0009 12.6686 24.0009 12.5005C24.0009 12.3324 23.9474 12.1686 23.848 12.033ZM12 18.566C7.19399 18.566 3.031 13.994 1.8 12.5C3.03 11.003 7.183 6.433 12 6.433C16.806 6.433 20.968 11.004 22.2 12.5C20.97 13.995 16.816 18.566 12 18.566Z" fill="#4CB8E9"/>
<path d="M12 7.753C10.7415 7.75459 9.535 8.25523 8.64511 9.14512C7.75522 10.035 7.25458 11.2415 7.25299 12.5C7.25458 13.7585 7.75522 14.965 8.64511 15.8549C9.535 16.7448 10.7415 17.2454 12 17.247C13.2585 17.2454 14.465 16.7448 15.3549 15.8549C16.2448 14.965 16.7454 13.7585 16.747 12.5C16.7454 11.2415 16.2448 10.035 15.3549 9.14512C14.465 8.25523 13.2585 7.75459 12 7.753ZM12 15.665C11.1608 15.6642 10.3563 15.3305 9.76288 14.7371C9.16949 14.1437 8.83579 13.3392 8.83499 12.5C8.83579 11.6608 9.16949 10.8563 9.76288 10.2629C10.3563 9.6695 11.1608 9.33579 12 9.335C12.8392 9.33579 13.6437 9.6695 14.2371 10.2629C14.8305 10.8563 15.1642 11.6608 15.165 12.5C15.1642 13.3392 14.8305 14.1437 14.2371 14.7371C13.6437 15.3305 12.8392 15.6642 12 15.665Z" fill="#4CB8E9"/>
<path d="M21.707 3.207L2.707 22.207" stroke="#4CB8E9" stroke-width="2"/>
</g>
<defs>
<clipPath id="clip0_1_104">
<rect width="24" height="24" fill="white" transform="translate(0 0.5)"/>
</clipPath>
</defs>
</svg>
